<svg clip-rule="evenodd" fill-rule="evenodd" height="2048" image-rendering="optimizeQuality" shape-rendering="geometricPrecision" text-rendering="geometricPrecision" viewBox="0 0 2048 2048" width="2048" xmlns="http://www.w3.org/2000/svg"><path d="m255.999 562.5h1536v923h-1536z" fill="#eee"/><path d="m1284.47 896.216 507.53-292.692v-41.024h-34.99l-578.69 333.716z" fill="#cf142b"/><path d="m1260.51 1170.31 531.49 306.4v-61.22l-425.31-245.18z" fill="#cf142b"/><path d="m255.999 632.764 454.652 263.452h106.23l-560.882-324.732z" fill="#cf142b"/><path d="m792.798 1170.31-536.799 309.87v5.32h96.978l546.107-315.19z" fill="#cf142b"/><g fill="#00247d"><path d="m1686.89 562.5h-537.79v310.28z"/><path d="m911.633 562.5h-535.641l535.641 310.28z"/><path d="m1792 896.216v-211.743l-364.84 211.743z"/><path d="m1792 1379.81v-209.5h-364.84z"/><path d="m406.392 1485.5h505.241v-291.68z"/><path d="m1149.1 1485.5h506.84l-506.84-291.68z"/><path d="m255.999 1170.31v218.93l377.524-218.93z"/><path d="m255.999 896.216h377.524l-377.524-219.251z"/></g><path d="m959.143 562.5v388.548h-703.144v164.562h703.144v369.89h142.447v-369.89h690.41v-164.562h-690.41v-388.548z" fill="#cf142b"/><path d="m0 0h2048v2048h-2048z" fill="none"/></svg>